# xmcd
#
# Track frame offsets:
#	182
#	15195
#	32150
#	52442
#	63812
#	76910
#	100602
#	119072
#	143280
#	161022
#	176700
#	199337
#	223887
#	246272
#	267382
#	292135
#	311192
#
# Disc length: 4396
#
# Revision: 4
# Processed by: cddbd v1.5.1PL0 Copyright (c) Steve Scherf et al.
# Submitted via: CDex 1.40Release
# Normalized: r3:DSETVAR1
#
DISCID=02112a11
DTITLE=Various Artist - Still Got The Blues
DYEAR=1994
DGENRE=Blues
TTITLE0=Gary More - Parsienne Walkaways
TTITLE1=Robert Cray - Who's been talkin'
TTITLE2=Bonnie Raitt and A.C. Reed - She's fine
TTITLE3=John Lee Hooker - Boom boom
TTITLE4=Muddy Waters - Mannish Boy
TTITLE5=Walter Trout Band - Please don't go
TTITLE6=Rory Block - Lovin' Whiskey
TTITLE7=Lonnie Mack - Stop
TTITLE8=Buddy Guy - Worried blues
TTITLE9=B.B. King - Ain't nobody home
TTITLE10=Pinetops Perkins - Blues after hours
TTITLE11=John Campbell - White lightnin'
TTITLE12=Koko Taylor - I'd rather go blind
TTITLE13=Mark Ford - Heart breakin' blues
TTITLE14=Albert Collins and Robert Cray - The dream
TTITLE15=Lonnie Brooks - Watch what you got
TTITLE16=big John's Blues Fantasy - Still got the blues (for you)
EXTD=YEAR: 1994 ID3G: 0
EXTT0=
EXTT1=
EXTT2=
EXTT3=
EXTT4=
EXTT5=
EXTT6=
EXTT7=
EXTT8=
EXTT9=
EXTT10=
EXTT11=
EXTT12=
EXTT13=
EXTT14=
EXTT15=
EXTT16=
PLAYORDER=
